<svg xmlns="http://www.w3.org/2000/svg" xmlns:xlink="http://www.w3.org/1999/xlink" width="48" height="48" version="1.1" viewBox="0 0 48 48"><title>Collections</title><desc>Created with Sketch.</desc><g fill="none" fill-rule="evenodd" stroke="none" stroke-width="1" data-id="Page-2"><g data-id="Collections"><rect width="48" height="48" x="0" y="0" fill="#4B9996" data-id="Rectangle-2"/><rect width="35" height="4" x="7" y="10" fill="#FFF" fill-rule="nonzero" data-id="Rectangle-path"/><rect width="10" height="2" x="11" y="19" fill="#FFF" fill-rule="nonzero" data-id="Rectangle-path"/><rect width="10" height="2" x="11" y="28" fill="#FFF" fill-rule="nonzero" data-id="Rectangle-path"/><path fill="#FFF" fill-rule="nonzero" d="M6,9 L6,39 L42,39 L42,9 L6,9 Z M41,38 L7,38 L7,10 L41,10 L41,38 Z" data-id="Shape"/><path fill="#FFF" fill-rule="nonzero" d="M37.2222222,20.5 L37.2222222,23.5 L24.7777778,23.5 L24.7777778,20.5 L37.2222222,20.5 L37.2222222,20.5 Z M39,19 L23,19 L23,25 L39,25 L39,19 L39,19 Z" data-id="Shape"/><path fill="#FFF" fill-rule="nonzero" d="M37.2222222,29.5 L37.2222222,32.5 L24.7777778,32.5 L24.7777778,29.5 L37.2222222,29.5 L37.2222222,29.5 Z M39,28 L23,28 L23,34 L39,34 L39,28 L39,28 Z" data-id="Shape"/></g></g></svg>